<svg width="44" height="44" viewBox="0 0 44 44" fill="none" xmlns="http://www.w3.org/2000/svg">
<path fill-rule="evenodd" clip-rule="evenodd" d="M22.2389 43.6368C34.0811 43.6368 43.681 34.0368 43.681 22.1946C43.681 12.8342 37.6831 4.87461 29.3209 1.9496C28.5136 5.60524 29.189 8.81135 30.2102 11.9389C30.4785 12.7605 30.7697 13.5738 31.0639 14.3899L31.1414 14.6048C31.4095 15.3478 31.6787 16.094 31.9303 16.8423C32.4822 18.4837 32.9572 20.1577 33.1663 21.9005C34.0058 28.8962 30.2354 34.012 26.5121 36.2078C24.9221 37.1454 22.3308 37.6787 19.5657 37.6215C16.7896 37.5641 13.7566 36.9105 11.2768 35.3906C6.7865 32.6385 3.5648 28.4923 2.64327 21.028C2.26466 17.9613 2.34105 15.4625 2.59063 13.5956C1.43695 16.228 0.796753 19.1365 0.796753 22.1946C0.796753 34.0368 10.3967 43.6368 22.2389 43.6368ZM4.27817 10.4778L4.39706 10.5389C3.88625 11.5336 2.92069 15.1136 3.63574 20.9055C4.52035 28.0708 7.57145 31.9467 11.7994 34.538C14.0886 35.9411 16.935 36.5669 19.5864 36.6217C22.2488 36.6768 24.633 36.155 26.0041 35.3464C29.4321 33.3247 32.9595 28.5701 32.1735 22.0197C31.9762 20.376 31.5256 18.7764 30.9825 17.161C30.7346 16.4237 30.4691 15.6878 30.2004 14.9431L30.2003 14.9429L30.1232 14.7291C29.829 13.9133 29.5332 13.087 29.2596 12.2493C28.2068 9.02509 27.4694 5.58907 28.3653 1.64048C26.4241 1.06274 24.3677 0.752502 22.2389 0.752502C14.7206 0.752502 8.10614 4.62188 4.27817 10.4778Z" fill="#C26149"/>
</svg>
