<svg width="44" height="44" viewBox="0 0 44 44" fill="none" xmlns="http://www.w3.org/2000/svg">
<path fill-rule="evenodd" clip-rule="evenodd" d="M41.3513 32.1485C42.9131 29.1739 43.7968 25.7875 43.7968 22.1946C43.7968 10.3525 34.1968 0.752502 22.3546 0.752502C10.5125 0.752502 0.912476 10.3525 0.912476 22.1946C0.912476 23.3654 1.00631 24.5143 1.18688 25.6342C1.53196 24.0508 2.25998 22.671 3.30945 21.5867C4.86746 19.977 7.09912 19.0544 9.73536 19.0544C13.3051 19.0544 18.5656 21.3578 22.5643 25.5564C22.9181 25.9279 23.28 26.315 23.65 26.7107L23.6501 26.7108C25.1075 28.2694 26.6909 29.9628 28.405 31.3751C30.5555 33.1469 32.8253 34.3999 35.1889 34.3999C38.3344 34.3999 40.4231 32.8833 41.2147 32.0228L41.3513 32.1485ZM40.215 34.0635C38.9986 34.7803 37.3031 35.3999 35.1889 35.3999C32.4748 35.3999 29.9787 33.9674 27.7691 32.1469C25.9994 30.6888 24.3581 28.9329 22.8976 27.3706C22.5336 26.9812 22.1809 26.6038 21.8401 26.246C17.9795 22.1924 12.9657 20.0544 9.73536 20.0544C7.33871 20.0544 5.37692 20.8885 4.02801 22.2822C2.6785 23.6765 1.90763 25.6669 1.96164 28.0432L1.72136 28.0487C4.2689 37.0454 12.542 43.6368 22.3546 43.6368C29.8076 43.6368 36.3725 39.8343 40.215 34.0635Z" fill="#D7F23D"/>
</svg>
