<svg height="512pt" viewBox="-11 0 512 512" width="512pt" xmlns="http://www.w3.org/2000/svg"><path d="m479.148438 166.742188-34.988282-29.226563c-1.921875-1.601563-4.332031-2.476563-6.828125-2.476563h-384c-2.496093 0-4.90625.875-6.824219 2.476563l-35.136718 29.355469c-4.949219 4.265625-8.425782 9.664062-9.964844 15.570312-1.085938 4.183594.449219 8.621094 3.882812 11.222656l206.296876 156.160157c3.773437 2.859375 9.023437 2.902343 12.839843.042969l3.476563-2.625c10.414062-7.933594 24.535156-7.871094 34.882812-.148438l3.199219 2.558594c1.960937 1.578125 4.308594 2.347656 6.65625 2.347656 2.261719 0 4.523437-.703125 6.441406-2.175781l206.507813-156.160157c3.582031-2.710937 5.078125-7.402343 3.734375-11.710937-1.835938-5.847656-5.226563-10.921875-10.175781-15.210937zm0 0" fill="#b0bec5"/><path d="m437.332031 0h-384c-5.886719 0-10.664062 4.777344-10.664062 10.667969v364.542969c0 5.886718 4.777343 10.667968 10.664062 10.667968l384 .105469c2.839844 0 5.546875-1.132813 7.554688-3.113281 2.003906-1.984375 3.113281-4.714844 3.113281-7.554688v-364.648437c0-5.890625-4.777344-10.667969-10.667969-10.667969zm0 0" fill="#2196f3"/><path d="m224.449219 332.84375-206.292969-156.160156c-2.605469-2.007813-5.910156-2.667969-9.089844-1.855469-3.136718.808594-5.757812 3.027344-7.082031 5.992187-1.769531 3.992188-1.984375 7.9375-1.984375 10.539063v288.640625c0 7.703125 2.710938 15.019531 7.808594 21.140625 2.113281 2.496094 5.140625 3.820313 8.191406 3.820313 2.238281 0 4.523438-.703126 6.441406-2.175782l202.027344-152.960937c2.667969-2.027344 4.222656-5.164063 4.222656-8.492188s-1.578125-6.484375-4.242187-8.488281zm0 0" fill="#cfd8dc"/><path d="m489.257812 181.78125c-1.085937-3.265625-3.691406-5.78125-6.953124-6.785156-3.285157-1.066406-6.828126-.402344-9.578126 1.6875l-206.507812 156.160156c-2.667969 1.984375-4.246094 5.140625-4.246094 8.488281 0 3.328125 1.558594 6.488281 4.226563 8.492188l202.023437 152.960937c1.921875 1.449219 4.183594 2.175782 6.445313 2.175782 3.050781 0 6.078125-1.324219 8.191406-3.820313 5.097656-6.121094 7.808594-13.4375 7.808594-21.140625v-288.640625c0-3.625-.449219-6.785156-1.410157-9.578125zm0 0" fill="#cfd8dc"/><path d="m481.109375 485.78125-201.792969-152.789062-3.476562-2.773438c-18.261719-13.695312-42.730469-13.738281-60.800782 0l-205.480468 155.5625c-2.410156 1.835938-3.949219 4.609375-4.183594 7.617188-.253906 3.050781.8125 6.015624 2.902344 8.234374 6.273437 6.589844 14.910156 10.367188 23.722656 10.367188h426.667969c8.808593 0 17.449219-3.777344 23.722656-10.347656 2.089844-2.21875 3.132813-5.183594 2.898437-8.234375-.253906-3.027344-1.769531-5.800781-4.179687-7.636719zm0 0" fill="#b0bec5"/><path d="m474.582031 505.066406c-2.242187 0-4.523437-.703125-6.445312-2.175781l-205.246094-155.5625c-10.539063-8-24.597656-7.980469-35.113281-.019531l-205.25 155.582031c-4.648438 3.542969-11.347656 2.644531-14.933594-2.070313-3.5625-4.691406-2.644531-11.371093 2.070312-14.933593l205.226563-155.5625c18.175781-13.867188 42.6875-13.84375 60.886719.023437l205.226562 155.539063c4.714844 3.5625 5.628906 10.242187 2.066406 14.933593-2.089843 2.773438-5.289062 4.246094-8.488281 4.246094zm0 0"/><path d="m272.640625 352c-3.222656 0-6.421875-1.449219-8.492187-4.222656-3.5625-4.695313-2.625-11.394532 2.070312-14.933594l206.398438-156.226562c4.671874-3.539063 11.414062-2.621094 14.933593 2.070312 3.5625 4.695312 2.625 11.390625-2.066406 14.957031l-206.402344 156.199219c-1.917969 1.453125-4.179687 2.15625-6.441406 2.15625zm0 0"/><path d="m218.027344 352c-2.242188 0-4.523438-.703125-6.441406-2.175781l-206.402344-156.179688c-4.691406-3.566406-5.632813-10.242187-2.070313-14.957031 3.542969-4.734375 10.285157-5.589844 14.933594-2.070312l206.402344 156.226562c4.691406 3.539062 5.628906 10.238281 2.066406 14.933594-2.066406 2.773437-5.289063 4.222656-8.488281 4.222656zm0 0"/><path d="m458.667969 512h-426.667969c-17.644531 0-32-14.355469-32-32v-288.683594c0-9.515625 4.179688-18.472656 11.5-24.574218l35.007812-29.164063c4.5-3.753906 11.21875-3.199219 15.015626 1.367187 3.777343 4.542969 3.160156 11.261719-1.363282 15.039063l-34.988281 29.140625c-2.453125 2.027344-3.839844 5.011719-3.839844 8.191406v288.683594c0 5.867188 4.800781 10.667969 10.667969 10.667969h426.667969c5.867187 0 10.664062-4.800781 10.664062-10.667969v-288.683594c0-3.179687-1.386719-6.164062-3.839843-8.191406l-34.984376-29.140625c-4.523437-3.777344-5.121093-10.496094-1.34375-15.019531 3.796876-4.542969 10.496094-5.097656 15.015626-1.363282l35.007812 29.160157c7.296875 6.082031 11.480469 15.039062 11.480469 24.554687v288.683594c0 17.644531-14.359375 32-32 32zm0 0"/><path d="m437.332031 225.984375c-5.886719 0-10.664062-4.777344-10.664062-10.667969v-193.984375h-362.667969v193.855469c0 5.890625-4.777344 10.667969-10.667969 10.667969-5.886719 0-10.664062-4.757813-10.664062-10.667969v-204.519531c0-5.890625 4.777343-10.667969 10.664062-10.667969h384c5.890625 0 10.667969 4.777344 10.667969 10.667969v204.648437c0 5.910156-4.777344 10.667969-10.667969 10.667969zm0 0"/><path d="m245.332031 234.667969c-5.886719 0-10.664062-4.78125-10.664062-10.667969v-128c0-5.886719 4.777343-10.667969 10.664062-10.667969 5.890625 0 10.667969 4.78125 10.667969 10.667969v128c0 5.886719-4.777344 10.667969-10.667969 10.667969zm0 0"/><path d="m309.332031 170.667969h-128c-5.886719 0-10.664062-4.78125-10.664062-10.667969s4.777343-10.667969 10.664062-10.667969h128c5.890625 0 10.667969 4.78125 10.667969 10.667969s-4.777344 10.667969-10.667969 10.667969zm0 0"/></svg>