<svg width="48" height="49" viewBox="0 0 48 49" fill="none" xmlns="http://www.w3.org/2000/svg">
<circle cx="24.0853" cy="24.4521" r="23.7387" fill="#181818"/>
<path fill-rule="evenodd" clip-rule="evenodd" d="M13.9112 5.57266C7.20163 9.19602 2.64307 16.2917 2.64307 24.4521C2.64307 36.2942 12.243 45.8942 24.0852 45.8942C25.0048 45.8942 25.911 45.8363 26.8001 45.724C28.3795 45.3875 29.609 44.8923 30.5847 44.3244C32.3914 43.2729 33.4174 41.9208 34.196 40.6466C35.0157 39.3053 35.0448 37.8016 34.5519 36.2627C34.0537 34.7072 33.0375 33.1833 31.8924 31.9502C31.3237 31.3378 30.2693 30.5349 28.8963 29.6258C27.5437 28.7303 25.9511 27.7762 24.3608 26.8585C23.0322 26.0917 21.715 25.3561 20.5485 24.7044C20.3193 24.5764 20.0959 24.4516 19.8793 24.3305C18.5811 23.6042 17.4909 22.9881 16.92 22.6075C12.6997 19.794 10.5163 15.1128 11.9689 10.0845C11.9927 10.0023 12.0166 9.91879 12.0408 9.83425C12.4093 8.54878 12.8497 7.01229 13.9112 5.57266ZM35.1485 42.8234C41.3684 39.0697 45.5274 32.2466 45.5274 24.4521C45.5274 12.6099 35.9274 3.00992 24.0852 3.00992C23.8846 3.00992 23.6846 3.01267 23.4854 3.01815C20.2792 3.51103 18.271 4.35894 16.9659 5.32381C15.0045 6.77384 14.4835 8.58157 13.9378 10.475L13.8903 10.6396C12.7168 14.7017 14.4167 18.535 18.0294 20.9434C18.5191 21.2698 19.5248 21.8405 20.8558 22.5851C21.0703 22.7051 21.2923 22.8291 21.5207 22.9566L21.5211 22.9569C22.6875 23.6084 24.0187 24.3519 25.3604 25.1262C26.9643 26.0518 28.5976 27.0294 30.0004 27.9582C31.3829 28.8736 32.6137 29.7877 33.358 30.5893C34.6371 31.9668 35.8435 33.7384 36.4566 35.6526C37.075 37.5833 37.104 39.7235 35.9026 41.6895C35.6789 42.0556 35.4309 42.437 35.1485 42.8234Z" fill="url(#paint0_linear)"/>
<defs>
<linearGradient id="paint0_linear" x1="2.64307" y1="3.00992" x2="46.2552" y2="3.76333" gradientUnits="userSpaceOnUse">
<stop stop-color="#F5880C"/>
<stop offset="1" stop-color="#F5330C"/>
</linearGradient>
</defs>
</svg>
